<svg width="245" height="245" viewBox="0 0 245 245" fill="none" xmlns="http://www.w3.org/2000/svg">
<g filter="url(#filter0_d_7_43)">
<rect x="4" width="237" height="237" rx="40" fill="url(#paint0_diamond_7_43)"/>
<rect x="6.5" y="2.5" width="232" height="232" rx="37.5" stroke="url(#paint1_diamond_7_43)" stroke-width="5"/>
</g>
<g opacity="0.9">
<path d="M206.499 87.6918C206.084 89.219 205.199 90.38 203.797 91.1669C203.147 91.5409 202.544 91.9539 201.839 92.1409C199.512 92.8343 198.071 94.455 196.998 96.4886C196.441 97.5561 196.112 98.6625 195.791 99.7767C195.697 100.057 195.603 100.283 195.415 100.657C194.718 104.685 192.76 110.007 189.086 108.02C186.9 106.859 187.645 104.226 187.504 102.278C187.316 99.504 185.224 97.4626 184.057 95.1017C184.01 95.055 183.963 94.9615 183.916 94.9147C183.313 94.0343 182.146 91.4007 182.099 91.0267C181.911 90.567 181.723 90.0527 181.542 89.593C181.033 88.3931 180.563 87.1854 180.289 85.9855C179.545 84.5985 178.292 78.2561 178.292 77.9756C178.292 77.8821 176.756 71.4462 176.474 68.2127C176.427 67.753 176.38 66.6855 176.239 66.2258C176.051 65.4388 176.192 64.9791 176.051 64.1922C176.004 63.8649 175.863 63.5922 175.722 63.3117C175.769 68.0335 176.231 72.7085 177.211 77.3367C177.626 79.2379 178.002 81.1313 178.417 83.0792C179.584 88.4009 181.582 93.4031 184.511 98.0314C184.793 98.4911 185.161 98.9586 185.255 99.6053C183.023 98.8183 181.018 99.652 179.02 100.299C176.741 101.039 174.649 102.247 172.691 103.727C171.061 104.974 169.573 107.015 168.829 108.909C168.414 108.722 167.106 100.533 166.965 96.8704C166.777 92.2422 166.918 87.6139 167.012 82.9857C167.059 80.952 167.474 78.9574 167.662 76.9705C167.247 76.9238 165.664 92.5227 165.664 93.6836C165.711 98.7716 167.623 109.789 167.756 110.35C168.453 112.898 171.249 114.191 173.247 115.212C174.414 115.812 174.594 117.292 174.085 118.313C173.897 118.726 173.623 119.007 173.341 119.287C172.832 119.981 172.362 120.355 171.524 120.627C170.403 121.508 169.103 121.367 167.85 121.321C165.758 121.274 163.706 120.947 161.661 120.721C160.032 120.534 158.497 120.767 157.008 121.367C155.238 122.108 153.938 123.315 153.006 124.928C152.912 125.115 152.449 125.715 152.167 125.762C151.838 124.694 151.838 123.167 151.791 122.108C151.744 119.794 151.141 117.846 151.282 115.259C151.423 112.711 151.329 110.124 151.282 107.576C151.235 104.241 151.423 100.914 151.47 97.5795C151.517 96.3795 151.658 95.1718 151.885 93.9719C152.073 93.0447 152.214 92.1175 152.261 91.1981C152.308 89.7177 152.59 88.284 152.818 86.8503C153.147 84.9492 153.374 83.009 153.656 81.1079C153.703 80.9209 153.75 80.6949 153.468 80.5079C152.395 83.1493 150.906 92.172 150.718 93.0525C150.483 95.0394 150.209 97.0808 150.115 99.0677C150.068 99.5741 149.833 112.765 149.739 112.906C149.739 115.126 149.786 117.3 149.927 119.482C150.021 121.469 150.342 123.463 150.53 125.45C150.718 126.377 150.906 127.351 151.039 128.271C151.086 128.505 151.133 128.684 151.18 128.918C151.18 128.964 151.227 129.011 151.227 129.011C151.227 129.011 151.227 129.011 151.18 129.058C151.831 131.652 152.348 134.286 152.904 136.974C153.366 139.055 154.251 140.722 154.995 142.717C155.504 144.01 156.021 145.584 155.23 146.792C153.93 148.74 151.462 149.293 150.483 149.799C150.436 148.459 150.389 147.251 150.201 146.051C150.107 145.405 149.966 144.758 149.872 144.15C149.496 142.296 148.846 140.449 148.384 138.642C148.149 137.808 147.969 137.021 147.781 136.187C147.687 136.047 147.546 135.907 147.452 135.813C147.405 135.86 147.405 135.907 147.358 136C147.914 138.268 148.149 140.535 148.611 142.849C149.026 144.797 149.59 149.472 149.543 149.932C149.449 150.672 149.825 151.506 149.496 152.246C149.355 152.526 149.402 152.893 149.449 153.22C149.543 154.147 148.893 154.934 148.564 155.768C148.423 156.142 148.102 156.321 147.773 156.461C147.632 156.555 147.491 156.601 147.358 156.695C146.238 157.108 145.172 157.529 144.052 157.895C143.723 157.614 143.817 157.248 143.817 156.968C143.77 155.347 143.723 153.726 143.629 152.106C143.582 150.204 143.488 148.311 143.12 146.41C142.885 145.163 143.026 143.909 143.026 142.662C143.026 141.369 143.026 140.067 142.791 138.774C142.376 136.086 142.462 133.359 142.047 130.624C141.812 129.144 141.671 127.616 141.303 126.183C140.746 124.196 140.511 122.108 140.135 120.121C139.853 118.547 139.297 117.02 139.015 115.399C138.686 115.633 138.827 116.139 138.874 116.42C139.25 117.666 139.571 120.588 139.712 121.648C139.994 123.775 140.966 130.951 141.154 134.652C141.248 134.886 141.342 135.112 141.201 135.299C141.248 136.499 141.295 137.66 141.389 138.813C141.483 140.293 141.53 141.727 141.577 143.207C142.133 148.21 142.039 158.666 142.133 158.947C142.18 159.134 142.18 159.227 142.18 159.36C142.736 161.214 143.621 163.061 144.177 164.868C144.687 166.489 145.572 172.878 144.64 174.031C144.13 174.678 143.472 175.192 142.728 175.512C139.752 176.852 137.284 178.94 134.77 180.927C134.629 181.02 133.79 181.62 133.516 181.948C132.396 183.062 131.096 184.028 129.983 185.189C129.568 185.649 125.981 188.984 126.075 189.583C125.887 189.63 130.399 166.668 130.587 165.375C130.728 164.448 131.284 160.7 131.472 159.819C132.028 157.318 132.263 154.77 132.404 152.23C132.404 152.043 132.357 151.817 132.357 151.63C132.357 151.584 132.263 151.49 132.216 151.443C131.981 151.443 131.981 151.63 131.981 151.771C131.519 154.365 130.814 156.952 130.587 159.547C130.03 165.609 128.401 171.444 127.422 177.413C126.396 183.428 124.586 189.217 122.769 195.045C122.26 196.713 122.072 198.38 122.166 200.094C122.26 201.996 121.704 203.702 120.771 205.276C120.395 205.923 119.886 206.523 119.189 207.037C118.633 205.697 118.351 204.395 118.586 203.055C118.539 202.821 118.492 202.596 118.586 202.268C119.33 199.494 118.03 196.76 117.38 193.986C117.098 193.433 117.051 192.872 116.964 192.272C115.758 189.03 118.171 173.525 118.171 173.338C118.171 172.364 118.265 171.39 118.406 170.471C118.641 168.803 118.735 167.323 119.009 165.796C119.244 164.502 119.385 163.154 119.565 161.627C118.774 162.648 118.868 163.754 118.539 164.681C118.163 165.702 117.889 166.762 117.701 167.829C117.513 168.85 117.286 169.91 117.098 170.93C116.91 171.951 116.91 173.011 116.588 174.031C116.447 174.125 116.306 174.125 116.212 174.031C114.818 172.87 113.189 172.13 111.653 171.257C111.465 171.164 111.277 171.024 111.144 170.93C110.306 170.424 109.515 169.637 109.1 168.803C108.912 168.569 108.865 168.39 108.865 168.11C108.818 167.923 108.818 167.782 108.818 167.65C108.865 166.676 109.327 165.523 109.75 164.549C109.844 164.089 109.938 163.575 110.032 163.162C110.22 162.562 110.494 161.962 110.729 161.354C110.729 161.214 110.776 161.121 110.87 160.98C110.917 160.84 110.917 160.7 110.964 160.567C110.964 160.474 110.964 160.38 110.964 160.287C111.152 158.76 111.293 157.232 111.34 155.705C111.387 154.685 111.669 147.649 111.716 146.589C111.763 144.041 112.131 141.634 112.554 139.14C112.695 138.26 112.836 137.379 113.251 136.592C113.204 136.312 113.298 136.039 113.392 135.759C113.674 134.878 113.902 133.998 113.808 133.024C113.204 134.317 112.64 135.665 112.319 137.099C111.387 140.893 110.925 144.781 110.275 148.623C109.813 151.397 109.484 154.178 109.531 156.999C109.531 158.16 109.155 159.313 108.974 160.56C106.93 159.866 104.925 159.173 102.927 158.479C102.598 158.339 102.324 158.199 102.183 157.973C102.042 157.879 101.901 157.739 101.807 157.56C101.157 156.586 100.781 155.526 100.601 154.365C100.554 154.318 100.554 154.272 100.507 154.178C100.46 154.085 100.46 153.944 100.507 153.851C100.319 152.043 100.648 150.15 101.204 148.389C99.8095 150.243 99.1593 153.111 99.4335 156.446C98.8773 155.939 97.7571 154.272 97.248 153.804C96.3158 152.924 95.5716 151.771 94.3653 151.443C93.8561 151.303 93.2451 151.256 92.924 150.937C88.318 146.636 90.2215 143.807 90.7385 142.234C91.7176 139.46 94.0441 138.158 95.4385 135.572C96.9268 132.751 97.859 131.497 96.8328 110.389C96.5038 103.953 94.7883 89.2346 94.6473 88.2139C94.5063 86.7802 94.0911 85.3933 93.6211 83.9986C95.2975 97.6963 96.2296 111.449 96.2296 125.474C94.6003 124.453 93.018 124.546 91.4826 125.287C90.8795 125.567 90.3155 125.887 89.7593 126.261C88.9681 126.72 87.2918 128.115 87.1038 128.247C85.8975 129.268 85.2395 129.081 85.1455 128.988C84.8165 128.801 84.5423 128.481 84.4483 128.107C84.4483 128.014 84.5423 124.959 84.7773 123.985C85.2395 122.178 85.4745 120.378 85.6155 118.523C85.7565 116.396 86.1246 108.986 86.1246 107.833C85.9836 107.646 85.7956 107.6 85.4745 107.6C85.1925 111.994 84.5423 116.35 84.3543 120.978C83.3281 120.097 82.3098 119.91 81.3306 119.591C79.6543 119.038 79.2861 118.017 80.1635 116.49C81.3306 114.503 82.208 112.368 82.537 110.054C82.678 108.94 83.0931 107.88 83.0931 106.719C83.0931 106.306 83.1401 105.932 83.0931 105.519C82.9051 104.086 83.2341 102.699 83.3281 101.257C83.3751 100.844 83.4691 100.377 83.4221 99.9637C83.4221 99.7767 83.4691 99.504 83.5161 99.3638C83.6101 97.7431 83.5631 93.7615 83.4221 92.0006C83.3281 90.6605 82.96 89.593 82.396 88.2996C82.255 88.7125 82.349 89.0398 82.443 89.3203C82.9991 91.5409 83.0931 93.8083 82.9051 96.0757C82.8581 96.8159 82.9521 97.5093 82.9051 98.2495C82.8111 100.984 82.255 103.665 82.255 106.4C82.255 107.927 81.879 109.407 81.3698 111.028C79.1373 108.48 76.0666 108.207 73.09 107.833C72.0168 107.693 70.9985 107.553 69.9723 107.28C69.4161 107.14 65.4133 105.566 68.437 100.844C70.1133 98.2495 72.2518 85.8452 72.4398 83.9986C72.4868 83.7181 72.4868 82.3779 72.4868 82.0974C72.6278 80.1105 72.4398 78.6691 72.4868 76.916C72.5808 74.3213 72.2988 71.828 71.6486 69.3269C71.6016 69.0931 71.5076 68.8672 71.2335 68.7269C71.3275 69.7944 71.3745 70.854 71.5155 71.9215C71.7505 73.7292 71.7035 75.4823 71.6565 77.29C71.5625 79.4638 71.4215 81.6845 71.5155 83.8661C71.5625 85.2998 71.2335 86.6867 71.0063 88.0814C70.6773 89.9826 70.5441 91.876 69.8861 93.6836C69.7921 93.9174 69.8391 94.1901 69.5571 94.3303C69.4631 94.3303 69.3691 94.3303 69.3221 94.2836C67.9748 91.3695 63.4158 90.5358 60.3373 92.7564C59.5461 93.3564 58.896 94.0966 58.3398 94.8835C57.6896 95.7173 57.0865 96.5977 56.3815 97.3847C54.7521 99.2858 52.6136 99.9793 50.0051 100.12C50.6083 99.0521 51.1253 98.1327 51.7285 97.2522C54.008 93.8706 56.0525 90.3566 57.5486 86.562C58.0578 85.2219 58.755 84.0142 59.178 82.6273C60.0161 79.8534 60.3843 76.9315 61.4575 74.2045C61.8726 73.1838 62.0136 72.0773 62.1546 71.0099C62.5698 67.9088 62.9928 64.8077 63.69 61.7534C64.9433 56.1512 66.8076 50.8295 70.6225 46.3415C70.6695 46.2947 70.7165 46.2012 70.7635 46.1545C72.855 43.6533 77.1398 43.1001 79.7875 44.9545C80.5316 45.461 81.3228 45.9285 81.973 46.4817C83.8373 48.0089 85.2786 49.8165 85.6938 52.3177C86.0698 54.5383 86.626 56.7589 87.0881 58.9795C87.4641 60.834 88.2553 62.4936 88.9055 64.4883C89.4146 63.6078 89.0935 63.2416 88.7645 62.4079C88.4825 61.7144 87.7853 59.1665 87.5973 58.2393C87.5033 57.7796 87.1821 55.5045 86.9941 54.398C87.5033 54.9513 89.8768 57.6861 90.4408 58.1458C91.373 58.9795 92.9083 61.3872 98.8616 60.7405C99.7938 60.647 102.026 58.3328 99.8408 64.3013C99.8408 64.3013 98.8146 66.9894 98.0235 66.5219C98.0705 67.1218 98.3055 67.3088 98.7676 66.8491C99.5118 66.1557 99.9348 65.2752 100.303 64.3948C100.491 63.8883 100.632 63.2805 100.812 62.7741C101.141 61.7534 101.462 60.7872 101.838 59.7665C102.347 58.4263 102.347 57.6394 103.092 55.8785C103.327 55.2785 104.721 50.2295 105.05 49.4425C105.982 47.2219 106.867 45.0013 107.98 42.8664C109.053 40.8795 110.4 39.0251 112.123 37.4512C113.518 36.1578 115.006 35.0903 116.729 34.2566C117.521 33.8826 118.359 33.5164 119.244 33.5631C120.45 33.6099 121.288 33.9371 122.315 34.2098C123.709 34.5838 124.923 35.2305 126.082 36.111C127.156 36.898 128.08 37.7784 129.153 38.5186C131.198 39.999 132.365 42.1729 133.806 44.1208C134.644 45.2818 135.623 46.3882 136.274 47.7284C136.736 48.6088 140.645 55.1383 141.021 55.8317C141.953 57.5926 143.394 59.9068 144.232 61.7066C145.023 63.374 145.211 63.0935 145.768 64.574C146.003 65.1739 146.841 66.2881 147.35 66.7478C146.7 64.8934 144.044 60.7327 143.347 58.9718C144.091 59.525 150.656 64.761 157.494 59.8055C155.497 64.4337 154.282 67.5815 155.168 66.9348L161.262 54.024C162.468 50.51 164.145 46.5752 166.103 43.5598C167.356 41.6119 169.08 40.2718 170.991 39.0251C171.923 38.4251 172.902 38.3784 173.921 38.6511C176.153 39.251 177.735 40.6847 178.856 42.6326C180.023 44.6195 181.088 46.6609 181.832 48.8815C182.905 52.1696 184.018 55.411 185.044 58.738C185.553 60.4522 186.391 62.0728 187.135 63.6468C188.068 65.5947 188.906 67.5815 189.697 69.5684C192.352 76.2303 196.582 81.6065 202.865 85.2608C203.797 85.814 204.776 86.3283 205.841 86.6478C206.687 86.6244 206.781 86.8114 206.499 87.6918Z" fill="#FBF3EA"/>
<path d="M67.0818 100.096C66.5726 99.1223 66.8938 98.2418 67.0818 97.4081C67.3168 96.3407 67.0818 95.3278 66.6666 94.2136C66.5726 93.9331 66.0165 92.6396 66.0165 92.1799C67.5048 92.9201 69.2281 95.0005 68.9461 96.4809C68.6563 97.8756 67.9591 98.9821 67.0818 100.096Z" fill="#FBF3EA"/>
<path d="M80.1087 127.266C79.9677 125.692 80.0617 124.118 80.2027 122.31C80.5787 118.882 83.5084 120.09 83.8295 126.705C84.1115 131.987 80.6649 129.954 80.1087 127.266Z" fill="#FBF3EA"/>
<path d="M89.6966 141.244C89.4146 139.764 89.6966 138.509 89.9316 137.262C90.0726 136.335 89.7906 135.455 89.9316 134.528C90.1196 133.234 90.2606 131.886 90.1196 130.593C90.1196 130.359 90.3076 129.159 90.4486 128.785C90.7306 128.138 91.2398 127.671 91.796 127.351C93.0023 126.611 95.1486 125.684 96.0338 127.071C96.2218 127.398 96.2218 128.879 96.2218 128.879C96.1278 131.286 94.6395 133.46 93.2921 135.361C92.125 137.075 90.9656 138.79 90.0335 140.636C90.0178 140.831 89.8768 140.971 89.6966 141.244Z" fill="#FBF3EA"/>
<path d="M108.168 164.3C108.027 163.466 107.886 162.772 107.705 162.032C108.771 162.679 108.865 163.092 108.168 164.3Z" fill="#FBF3EA"/>
<path d="M115.844 184.293C115.335 181.605 115.468 179.111 115.609 176.423C116.776 177.904 116.917 182.119 115.844 184.293Z" fill="#FBF3EA"/>
<path d="M146.418 166.193C146.136 166.146 146.136 165.912 146.089 165.733C145.807 164.572 145.251 163.653 144.506 162.726C143.903 161.939 143.95 160.505 144.506 159.718C144.6 159.578 144.741 159.484 144.922 159.484C145.11 159.531 145.157 159.671 145.204 159.812C145.533 160.832 145.619 161.892 145.995 162.866C146.512 164.253 146.512 164.666 146.418 166.193Z" fill="#FBF3EA"/>
<path d="M159.687 127.686C159.593 128.38 159.358 129.027 159.225 129.72C158.943 130.881 158.575 131.941 158.246 133.102V133.148C158.246 133.195 158.199 133.242 158.199 133.289C158.199 133.382 158.199 133.476 158.152 133.522C157.502 135.696 157.643 137.917 157.267 140.145C157.22 140.285 157.032 142.132 156.938 142.366C156.75 142.179 155.818 140.332 155.818 140.285C155.356 138.338 155.074 137.371 154.282 135.517C153.491 133.616 152.888 130.515 153.029 128.481C153.17 125.567 156.147 122.785 158.896 122.419C159.452 122.326 160.894 122.653 160.894 123.206C160.941 123.518 159.774 127.172 159.687 127.686Z" fill="#FBF3EA"/>
<path d="M175.832 115.189C174.9 114.168 173.787 113.661 172.62 113.241H172.573H172.526C172.385 113.194 172.244 113.147 172.111 113.054H172.064C171.508 112.913 171.038 112.641 170.717 112.267C169.879 111.76 169.322 110.599 169.691 109.719C170.106 108.605 170.764 107.498 171.602 106.571C172.017 105.691 172.949 105.457 173.513 104.623C175.143 102.262 175.284 105.917 175.284 105.917C175.284 105.963 175.284 105.963 175.284 106.01C175.425 106.797 175.519 106.937 175.613 107.537C175.644 107.779 176.2 113.521 175.832 115.189Z" fill="#FBF3EA"/>
<path d="M186.07 103.704C185.373 103.197 185.044 102.543 184.723 101.943C184.535 101.569 183.65 100.696 183.885 100.416C184.026 100.182 184.347 100.275 184.582 100.322C185.091 100.416 185.42 100.829 185.702 101.249C186.117 101.904 186.305 102.738 186.07 103.704Z" fill="#FBF3EA"/>
<path d="M207.15 85.7907C205.896 85.5102 204.776 85.0037 203.656 84.4038C196.912 80.7495 192.909 74.82 190.206 67.9244C189.744 66.7245 189.274 65.5168 188.718 64.3168C187.183 61.2158 186.015 58.1147 185.044 54.7798C184.809 53.9461 184.441 53.1124 184.159 52.3255C183.556 50.6581 183.133 48.9439 182.577 47.2765C181.644 44.4091 180.344 41.7678 178.206 39.6406C176.952 38.394 175.417 37.5135 173.647 37.1863C172.62 36.9993 171.688 37.1395 170.811 37.646C168.437 39.1264 166.299 40.8405 164.811 43.2482C163.878 44.7286 163.134 46.583 162.39 48.1569C161.458 49.9646 160.808 51.671 160.252 53.6656C159.97 54.5928 158.951 56.2135 158.481 57.0472C157.643 58.6211 156.061 60.3353 154.243 60.5613C151.22 60.8885 148.564 61.0677 146.05 59.634C143.817 58.3406 142.423 56.12 141.209 53.8448C140.418 52.3177 139.814 50.697 138.835 49.3101C137.112 46.9025 135.53 44.3546 133.947 41.8613C131.809 38.5732 128.965 36.1188 125.754 33.9917C124.774 33.345 123.889 32.8307 122.636 32.6515C121.563 32.5113 121.383 32.1918 120.215 32.0516C119.471 31.9581 117.936 32.0983 117.286 32.4645C115.891 33.2047 114.356 33.7579 113.095 34.7319C109.977 37.233 107.604 40.2873 106.021 43.9416C105.371 45.422 104.721 46.9492 104.11 48.4296C103.734 49.3568 103.178 52.7774 102.763 53.4319C102.254 54.2188 101.925 59.7743 98.7599 59.9613C96.7154 60.0548 95.2271 60.195 93.6839 59.1276C90.4722 56.907 87.8167 54.1721 86.3754 50.5178C85.122 47.37 82.8817 45.1961 80.0931 43.4819C78.2287 42.3677 76.3252 42.0015 74.2259 42.8352C73.5287 43.1157 72.8316 43.3417 72.1814 43.6222C71.3432 43.9494 70.6461 44.5026 70.0899 45.2896C69.2047 46.4895 68.3196 47.744 67.4344 48.9439C66.6432 50.0581 66.0871 51.258 65.6171 52.5047C63.4316 58.2939 62.3584 64.309 61.6142 70.4177C61.5202 71.2982 61.3792 72.1786 61.1521 73.0591C60.6429 74.9135 60.0789 76.7134 59.5697 78.5678C58.3634 83.0558 56.7341 87.3646 54.3606 91.3929C53.1542 93.4732 51.9401 95.5147 50.5457 97.5015C49.9426 98.382 49.4726 99.3092 48.5874 99.9559C48.3054 100.143 48.0312 100.369 48.2114 100.743C48.3994 101.07 48.7206 101.156 49.0496 101.117C49.7937 101.07 50.5379 101.023 51.2351 100.93C54.1647 100.649 56.4912 99.356 58.1676 96.9016C58.7237 96.1146 59.2877 95.2809 59.9379 94.5407C61.0111 93.2473 62.3114 92.4603 63.9877 92.3201C65.0609 92.2266 65.1549 92.2266 65.5231 93.2473C66.1732 94.9147 66.4082 96.6289 66.2672 98.382C66.1732 99.9092 66.0792 101.483 65.9852 103.01C65.8912 104.724 66.5884 105.971 67.9436 106.992C69.1969 107.966 70.5991 108.332 72.1344 108.519C73.7167 108.659 75.2991 108.932 76.8344 109.212C77.8136 109.399 80.7432 111.34 80.9312 112.267C81.3464 114.3 78.9729 115.002 78.8867 117.035C78.8397 117.588 78.8867 118.149 79.1687 118.703C79.5839 119.583 79.6309 120.604 79.5447 121.57C79.3097 123.791 79.4037 126.011 79.6387 128.232C79.7797 129.432 80.4769 130.133 81.5031 130.593C82.2472 130.92 83.0854 130.967 83.9235 130.826C85.2239 130.546 86.3911 129.993 87.4564 129.253C87.9186 128.925 88.3415 128.512 88.8507 128.325C89.1797 128.606 89.1797 128.925 89.1797 129.253C89.2267 130.78 89.4617 132.307 89.1327 133.881C89.0387 134.294 88.9917 134.668 88.9917 135.081C88.9447 137.301 88.5765 139.522 88.6157 141.743C88.6627 143.317 88.4277 144.89 88.7097 146.464C89.1719 149.285 90.6211 151.373 93.3627 152.339C95.1331 152.939 96.4334 153.96 97.1306 155.721C97.4126 156.461 97.8277 157.155 98.4779 157.575C99.8722 158.456 101.133 159.523 102.716 159.983C103.789 160.31 104.807 160.63 105.88 160.957C106.343 161.097 106.625 161.37 106.719 161.884C107.048 163.832 107.463 165.725 107.322 167.673C107.228 168.787 107.604 169.707 108.395 170.541C110.071 172.302 111.928 173.782 114.027 175.029C114.403 175.262 114.771 175.488 114.771 176.049C114.724 179.844 115.186 183.685 115.006 187.48C114.865 190.3 114.865 193.082 116.542 195.583C117.748 197.391 118.124 199.378 117.936 201.505C117.889 202.011 117.842 202.572 117.795 203.079C117.654 204.24 117.466 205.393 117.38 206.593C117.333 207.286 117.333 208.073 118.124 208.4C119.659 209 120.168 209.141 121.242 207.847C122.542 206.273 123.286 204.466 123.521 202.432C123.756 200.484 123.756 198.544 124.265 196.643C124.821 194.469 125.432 192.295 127.015 190.628C128.221 189.381 129.435 188.08 130.689 186.88C132.412 185.212 134.362 183.825 136.039 182.064C137.159 180.904 138.459 179.984 139.901 179.291C141.765 178.41 143.433 177.257 145.016 176.003C146.598 174.756 147.577 173.135 147.624 171.094C147.671 169.239 147.483 167.346 147.436 165.492C147.389 163.458 147.389 161.417 147.342 159.383C147.342 158.783 147.53 158.456 148.133 158.183C149.019 157.77 149.857 157.256 150.225 156.235C150.601 155.168 151.063 154.108 150.969 152.947C150.922 151.833 151.478 151.093 152.363 150.586C152.739 150.352 153.155 150.173 153.57 150.033C155.434 149.246 156.593 147.859 157.15 145.958C157.526 144.618 157.847 143.27 158.082 141.93C158.591 138.782 158.826 135.587 159.476 132.393C160.079 129.385 161.105 126.518 161.897 123.596C161.991 123.183 162.226 122.996 162.688 122.949C164.129 122.902 165.523 122.669 166.973 122.856C169.064 123.136 171.069 122.762 172.973 122.022C174.79 121.375 176.044 120.214 176.232 118.181C176.279 117.581 176.467 116.981 176.647 116.42C176.929 115.399 177.023 114.339 176.976 113.272C176.835 110.171 176.561 107.116 175.903 104.109C175.762 103.509 175.95 103.228 176.412 102.948C177.947 102.114 179.529 101.281 181.159 100.727C182.185 100.353 182.232 100.353 182.882 101.234C184.37 103.182 185.953 105.028 186.791 107.389C187.206 108.55 187.997 109.29 189.258 109.516C191.82 109.929 193.12 109.236 194.374 106.968C195.541 104.841 196.285 102.574 196.794 100.213C197.123 98.6391 197.679 97.1587 198.611 95.8653C199.356 94.7978 200.241 93.8317 201.494 93.5512C202.794 93.2239 203.868 92.5305 205.027 91.9305C205.489 91.6968 205.865 91.3305 206.233 90.9098C207.306 89.5696 207.628 87.9957 207.769 86.375C207.753 85.8842 207.432 85.8374 207.15 85.7907ZM67.0819 100.096C66.5727 99.1222 66.8939 98.2418 67.0819 97.408C67.3169 96.3406 67.0819 95.3277 66.6667 94.2135C66.5727 93.933 66.0166 92.6395 66.0166 92.1798C67.5049 92.92 69.2282 95.0004 68.9462 96.4808C68.6564 97.8755 67.9592 98.982 67.0819 100.096ZM80.1087 127.266C79.9677 125.692 80.0617 124.118 80.2027 122.31C80.5787 118.882 83.5084 120.09 83.8295 126.705C84.1115 131.987 80.6649 129.954 80.1087 127.266ZM89.6967 141.244C89.4147 139.764 89.6967 138.509 89.9317 137.262C90.0727 136.335 89.7907 135.455 89.9317 134.528C90.1197 133.234 90.2607 131.886 90.1197 130.593C90.1197 130.359 90.3077 129.159 90.4487 128.785C90.7307 128.138 91.2399 127.671 91.7961 127.351C93.0024 126.611 95.1487 125.684 96.0339 127.071C96.2219 127.398 96.2219 128.879 96.2219 128.879C96.1279 131.286 94.6396 133.46 93.2922 135.361C92.1251 137.075 90.9657 138.79 90.0336 140.636C90.0179 140.831 89.8769 140.971 89.6967 141.244ZM108.168 164.299C108.027 163.466 107.886 162.772 107.706 162.032C108.771 162.679 108.865 163.092 108.168 164.299ZM115.844 184.293C115.335 181.605 115.468 179.111 115.609 176.423C116.777 177.904 116.918 182.119 115.844 184.293ZM146.418 166.193C146.136 166.146 146.136 165.912 146.089 165.733C145.807 164.572 145.251 163.653 144.507 162.726C143.903 161.939 143.95 160.505 144.507 159.718C144.601 159.578 144.742 159.484 144.922 159.484C145.11 159.531 145.157 159.671 145.204 159.811C145.533 160.832 145.619 161.892 145.995 162.866C146.512 164.253 146.512 164.666 146.418 166.193ZM159.688 127.686C159.594 128.38 159.359 129.027 159.225 129.72C158.943 130.881 158.575 131.941 158.246 133.102V133.148C158.246 133.195 158.199 133.242 158.199 133.289C158.199 133.382 158.199 133.476 158.152 133.522C157.502 135.696 157.643 137.917 157.267 140.145C157.22 140.286 157.032 142.132 156.938 142.366C156.75 142.179 155.818 140.332 155.818 140.286C155.356 138.338 155.074 137.372 154.283 135.517C153.491 133.616 152.888 130.515 153.029 128.481C153.17 125.567 156.147 122.786 158.896 122.419C159.453 122.326 160.894 122.653 160.894 123.206C160.941 123.518 159.774 127.172 159.688 127.686ZM175.832 115.189C174.9 114.168 173.788 113.661 172.62 113.241H172.573H172.526C172.385 113.194 172.244 113.147 172.111 113.054H172.064C171.508 112.913 171.038 112.641 170.717 112.267C169.879 111.76 169.323 110.599 169.691 109.719C170.106 108.605 170.764 107.498 171.602 106.571C172.017 105.691 172.949 105.457 173.513 104.623C175.143 102.262 175.284 105.917 175.284 105.917C175.284 105.963 175.284 105.963 175.284 106.01C175.425 106.797 175.519 106.937 175.613 107.537C175.644 107.779 176.2 113.521 175.832 115.189ZM186.07 103.704C185.373 103.197 185.044 102.543 184.723 101.943C184.535 101.569 183.65 100.696 183.885 100.416C184.026 100.182 184.347 100.275 184.582 100.322C185.091 100.416 185.42 100.829 185.702 101.249C186.117 101.904 186.305 102.738 186.07 103.704ZM206.5 87.6918C206.084 89.219 205.199 90.38 203.797 91.1669C203.147 91.5409 202.544 91.9539 201.839 92.1409C199.512 92.8343 198.071 94.455 196.998 96.4886C196.442 97.5561 196.113 98.6625 195.791 99.7767C195.697 100.057 195.603 100.283 195.415 100.657C194.718 104.685 192.76 110.007 189.086 108.02C186.901 106.859 187.645 104.226 187.504 102.278C187.316 99.504 185.224 97.4626 184.057 95.1017C184.01 95.055 183.963 94.9615 183.916 94.9147C183.313 94.0342 182.146 91.4007 182.099 91.0267C181.911 90.567 181.723 90.0527 181.543 89.593C181.033 88.3931 180.563 87.1854 180.289 85.9855C179.545 84.5985 178.292 78.2561 178.292 77.9756C178.292 77.8821 176.756 71.4462 176.474 68.2127C176.427 67.753 176.38 66.6855 176.239 66.2258C176.051 65.4388 176.192 64.9791 176.051 64.1922C176.004 63.8649 175.863 63.5922 175.722 63.3117C175.769 68.0335 176.232 72.7085 177.211 77.3367C177.626 79.2379 178.002 81.1313 178.417 83.0792C179.584 88.4009 181.582 93.4031 184.511 98.0314C184.793 98.4911 185.162 98.9586 185.256 99.6053C183.023 98.8183 181.018 99.652 179.02 100.299C176.741 101.039 174.649 102.247 172.691 103.727C171.062 104.974 169.573 107.015 168.829 108.909C168.414 108.722 167.106 100.533 166.965 96.8704C166.777 92.2422 166.918 87.6139 167.012 82.9857C167.059 80.952 167.474 78.9574 167.662 76.9705C167.247 76.9238 165.664 92.5227 165.664 93.6836C165.711 98.7716 167.623 109.789 167.756 110.35C168.453 112.898 171.25 114.191 173.247 115.212C174.414 115.812 174.594 117.292 174.085 118.313C173.897 118.726 173.623 119.007 173.341 119.287C172.832 119.98 172.362 120.355 171.524 120.627C170.404 121.508 169.103 121.367 167.85 121.321C165.758 121.274 163.706 120.947 161.662 120.721C160.032 120.534 158.497 120.767 157.009 121.367C155.238 122.108 153.938 123.315 153.006 124.928C152.912 125.115 152.45 125.715 152.168 125.762C151.839 124.694 151.839 123.167 151.792 122.108C151.745 119.794 151.141 117.846 151.282 115.259C151.423 112.711 151.329 110.124 151.282 107.576C151.235 104.241 151.423 100.914 151.47 97.5795C151.517 96.3795 151.658 95.1718 151.886 93.9719C152.074 93.0447 152.215 92.1175 152.262 91.1981C152.309 89.7177 152.591 88.284 152.818 86.8503C153.147 84.9492 153.374 83.009 153.656 81.1079C153.703 80.9209 153.75 80.6949 153.468 80.5079C152.395 83.1493 150.906 92.172 150.718 93.0525C150.483 95.0394 150.209 97.0808 150.115 99.0677C150.068 99.5741 149.833 112.765 149.739 112.906C149.739 115.126 149.786 117.3 149.927 119.482C150.021 121.469 150.342 123.463 150.53 125.45C150.718 126.377 150.906 127.351 151.04 128.271C151.087 128.505 151.134 128.684 151.181 128.918C151.181 128.964 151.228 129.011 151.228 129.011C151.228 129.011 151.228 129.011 151.181 129.058C151.831 131.652 152.348 134.286 152.904 136.974C153.366 139.054 154.251 140.722 154.995 142.717C155.505 144.01 156.022 145.584 155.23 146.792C153.93 148.74 151.463 149.293 150.483 149.799C150.436 148.459 150.389 147.251 150.201 146.051C150.107 145.405 149.966 144.758 149.872 144.15C149.496 142.296 148.846 140.449 148.384 138.642C148.149 137.808 147.969 137.021 147.781 136.187C147.687 136.047 147.546 135.907 147.452 135.813C147.405 135.86 147.405 135.907 147.358 136C147.914 138.268 148.149 140.535 148.611 142.849C149.026 144.797 149.59 149.472 149.543 149.932C149.449 150.672 149.825 151.506 149.496 152.246C149.355 152.526 149.402 152.893 149.449 153.22C149.543 154.147 148.893 154.934 148.564 155.768C148.423 156.142 148.102 156.321 147.773 156.461C147.632 156.555 147.491 156.601 147.358 156.695C146.238 157.108 145.172 157.529 144.052 157.895C143.723 157.614 143.817 157.248 143.817 156.968C143.77 155.347 143.723 153.726 143.629 152.106C143.582 150.204 143.488 148.311 143.12 146.41C142.885 145.163 143.026 143.909 143.026 142.662C143.026 141.369 143.026 140.067 142.791 138.774C142.376 136.086 142.462 133.359 142.047 130.624C141.812 129.144 141.671 127.616 141.303 126.183C140.747 124.196 140.512 122.108 140.136 120.121C139.854 118.547 139.297 117.02 139.015 115.399C138.686 115.633 138.827 116.139 138.874 116.42C139.25 117.666 139.572 120.588 139.713 121.648C139.995 123.775 140.966 130.951 141.154 134.652C141.248 134.886 141.342 135.112 141.201 135.299C141.248 136.499 141.295 137.66 141.389 138.813C141.483 140.293 141.53 141.727 141.577 143.207C142.133 148.21 142.039 158.666 142.133 158.947C142.18 159.134 142.18 159.227 142.18 159.36C142.736 161.214 143.621 163.061 144.178 164.868C144.687 166.489 145.572 172.878 144.64 174.031C144.131 174.678 143.473 175.192 142.728 175.512C139.752 176.852 137.284 178.94 134.77 180.927C134.629 181.02 133.791 181.62 133.516 181.948C132.396 183.062 131.096 184.028 129.984 185.189C129.568 185.649 125.981 188.984 126.075 189.583C125.887 189.63 130.399 166.668 130.587 165.375C130.728 164.448 131.284 160.7 131.472 159.819C132.028 157.318 132.263 154.77 132.404 152.23C132.404 152.043 132.357 151.817 132.357 151.63C132.357 151.583 132.263 151.49 132.216 151.443C131.981 151.443 131.981 151.63 131.981 151.771C131.519 154.365 130.814 156.952 130.587 159.547C130.031 165.609 128.401 171.444 127.422 177.413C126.396 183.428 124.586 189.217 122.769 195.045C122.26 196.713 122.072 198.38 122.166 200.094C122.26 201.996 121.704 203.702 120.772 205.276C120.396 205.923 119.886 206.523 119.189 207.037C118.633 205.697 118.351 204.395 118.586 203.055C118.539 202.821 118.492 202.596 118.586 202.268C119.33 199.494 118.03 196.76 117.38 193.986C117.098 193.433 117.051 192.872 116.965 192.272C115.758 189.03 118.171 173.525 118.171 173.338C118.171 172.364 118.265 171.39 118.406 170.471C118.641 168.803 118.735 167.323 119.009 165.796C119.244 164.502 119.385 163.154 119.565 161.627C118.774 162.648 118.868 163.754 118.539 164.681C118.163 165.702 117.889 166.762 117.701 167.829C117.513 168.85 117.286 169.91 117.098 170.93C116.91 171.951 116.91 173.011 116.589 174.031C116.448 174.125 116.307 174.125 116.213 174.031C114.818 172.87 113.189 172.13 111.654 171.257C111.466 171.164 111.278 171.024 111.144 170.93C110.306 170.424 109.515 169.637 109.1 168.803C108.912 168.569 108.865 168.39 108.865 168.11C108.818 167.923 108.818 167.782 108.818 167.65C108.865 166.676 109.327 165.523 109.75 164.549C109.844 164.089 109.938 163.575 110.032 163.162C110.22 162.562 110.494 161.962 110.729 161.354C110.729 161.214 110.776 161.12 110.87 160.98C110.917 160.84 110.917 160.7 110.964 160.567C110.964 160.474 110.964 160.38 110.964 160.287C111.152 158.76 111.293 157.232 111.34 155.705C111.387 154.685 111.669 147.649 111.716 146.589C111.763 144.041 112.131 141.634 112.554 139.14C112.695 138.26 112.836 137.379 113.252 136.592C113.205 136.312 113.299 136.039 113.393 135.759C113.675 134.878 113.902 133.998 113.808 133.024C113.205 134.317 112.641 135.665 112.319 137.099C111.387 140.893 110.925 144.781 110.275 148.623C109.813 151.396 109.484 154.178 109.531 156.999C109.531 158.16 109.155 159.313 108.975 160.56C106.93 159.866 104.925 159.173 102.927 158.479C102.598 158.339 102.324 158.199 102.183 157.973C102.042 157.879 101.901 157.739 101.807 157.56C101.157 156.586 100.781 155.526 100.601 154.365C100.554 154.318 100.554 154.272 100.507 154.178C100.46 154.085 100.46 153.944 100.507 153.851C100.319 152.043 100.648 150.15 101.204 148.389C99.8096 150.243 99.1594 153.111 99.4336 156.446C98.8774 155.939 97.7572 154.272 97.2481 153.804C96.3159 152.924 95.5717 151.771 94.3654 151.443C93.8562 151.303 93.2452 151.256 92.924 150.937C88.318 146.636 90.2216 143.807 90.7386 142.233C91.7177 139.46 94.0442 138.158 95.4386 135.572C96.9269 132.751 97.859 131.497 96.8329 110.389C96.5039 103.953 94.7884 89.2346 94.6474 88.2139C94.5064 86.7802 94.0912 85.3933 93.6212 83.9986C95.2975 97.6963 96.2297 111.449 96.2297 125.474C94.6004 124.453 93.0181 124.546 91.4827 125.287C90.8796 125.567 90.3156 125.887 89.7594 126.261C88.9682 126.72 87.2919 128.115 87.1039 128.247C85.8976 129.268 85.2396 129.081 85.1456 128.988C84.8166 128.801 84.5424 128.481 84.4484 128.107C84.4484 128.014 84.5424 124.959 84.7774 123.985C85.2395 122.178 85.4746 120.378 85.6156 118.523C85.7566 116.396 86.1247 108.986 86.1247 107.833C85.9837 107.646 85.7957 107.6 85.4745 107.6C85.1925 111.994 84.5424 116.35 84.3544 120.978C83.3282 120.097 82.3099 119.91 81.3307 119.591C79.6544 119.038 79.2862 118.017 80.1636 116.49C81.3307 114.503 82.208 112.368 82.537 110.054C82.678 108.94 83.0932 107.88 83.0932 106.719C83.0932 106.306 83.1402 105.932 83.0932 105.519C82.9052 104.086 83.2342 102.699 83.3282 101.257C83.3752 100.844 83.4692 100.377 83.4222 99.9637C83.4222 99.7767 83.4692 99.504 83.5162 99.3638C83.6102 97.7431 83.5632 93.7615 83.4222 92.0006C83.3282 90.6605 82.96 89.593 82.396 88.2996C82.2551 88.7125 82.3491 89.0398 82.4431 89.3203C82.9992 91.5409 83.0932 93.8083 82.9052 96.0757C82.8582 96.8159 82.9522 97.5093 82.9052 98.2495C82.8112 100.984 82.2551 103.665 82.2551 106.4C82.2551 107.927 81.8791 109.407 81.3699 111.028C79.1374 108.48 76.0667 108.207 73.0901 107.833C72.0169 107.693 70.9986 107.553 69.9724 107.28C69.4162 107.14 65.4134 105.566 68.437 100.844C70.1134 98.2495 72.2519 85.8452 72.4399 83.9986C72.4869 83.7181 72.4869 82.3779 72.4869 82.0974C72.6279 80.1105 72.4399 78.6691 72.4869 76.916C72.5809 74.3213 72.2989 71.828 71.6487 69.3269C71.6017 69.0931 71.5077 68.8672 71.2336 68.7269C71.3276 69.7944 71.3746 70.854 71.5156 71.9215C71.7506 73.7292 71.7036 75.4823 71.6566 77.29C71.5626 79.4638 71.4216 81.6845 71.5156 83.8661C71.5626 85.2998 71.2336 86.6867 71.0064 88.0814C70.6774 89.9826 70.5442 91.876 69.8862 93.6836C69.7922 93.9174 69.8392 94.1901 69.5572 94.3303C69.4632 94.3303 69.3692 94.3303 69.3222 94.2836C67.9749 91.3695 63.4159 90.5358 60.3374 92.7564C59.5462 93.3564 58.8961 94.0966 58.3399 94.8835C57.6897 95.7173 57.0866 96.5977 56.3816 97.3847C54.7522 99.2858 52.6137 99.9793 50.0052 100.12C50.6084 99.0521 51.1254 98.1327 51.7286 97.2522C54.0081 93.8706 56.0526 90.3566 57.5487 86.562C58.0579 85.2219 58.7551 84.0142 59.1781 82.6273C60.0162 79.8534 60.3844 76.9315 61.4576 74.2045C61.8727 73.1838 62.0137 72.0773 62.1547 71.0099C62.5699 67.9088 62.9929 64.8077 63.6901 61.7534C64.9434 56.1512 66.8077 50.8295 70.6226 46.3415C70.6696 46.2947 70.7166 46.2012 70.7636 46.1545C72.8551 43.6533 77.1399 43.1001 79.7876 44.9545C80.5317 45.461 81.3229 45.9285 81.9731 46.4817C83.8374 48.0089 85.2787 49.8165 85.6939 52.3177C86.0699 54.5383 86.626 56.7589 87.0882 58.9795C87.4642 60.834 88.2554 62.4936 88.9056 64.4883C89.4147 63.6078 89.0935 63.2416 88.7645 62.4079C88.4825 61.7144 87.7854 59.1665 87.5974 58.2393C87.5034 57.7796 87.1822 55.5045 86.9942 54.398C87.5034 54.9513 89.8769 57.6861 90.4409 58.1458C91.3731 58.9795 92.9084 61.3872 98.8617 60.7405C99.7939 60.647 102.026 58.3328 99.8409 64.3013C99.8409 64.3013 98.8147 66.9894 98.0236 66.5219C98.0706 67.1218 98.3056 67.3088 98.7677 66.8491C99.5119 66.1557 99.9349 65.2752 100.303 64.3948C100.491 63.8883 100.632 63.2805 100.812 62.7741C101.141 61.7534 101.462 60.7872 101.838 59.7665C102.348 58.4263 102.348 57.6394 103.092 55.8785C103.327 55.2785 104.721 50.2295 105.05 49.4426C105.982 47.2219 106.867 45.0013 107.98 42.8664C109.053 40.8795 110.4 39.0251 112.124 37.4512C113.518 36.1578 115.006 35.0903 116.73 34.2566C117.521 33.8826 118.359 33.5164 119.244 33.5631C120.45 33.6099 121.289 33.9371 122.315 34.2098C123.709 34.5838 124.923 35.2306 126.083 36.111C127.156 36.898 128.08 37.7784 129.153 38.5186C131.198 39.999 132.365 42.1729 133.806 44.1208C134.644 45.2818 135.624 46.3882 136.274 47.7284C136.736 48.6088 140.645 55.1383 141.021 55.8317C141.953 57.5926 143.394 59.9068 144.232 61.7066C145.024 63.374 145.212 63.0935 145.768 64.574C146.003 65.1739 146.841 66.2881 147.35 66.7478C146.7 64.8934 144.044 60.7327 143.347 58.9718C144.091 59.525 150.656 64.761 157.494 59.8055C155.497 64.4337 154.283 67.5815 155.168 66.9348L161.262 54.024C162.468 50.51 164.145 46.5752 166.103 43.5598C167.356 41.6119 169.08 40.2718 170.991 39.0251C171.923 38.4251 172.902 38.3784 173.921 38.6511C176.153 39.251 177.736 40.6847 178.856 42.6326C180.023 44.6195 181.088 46.6609 181.832 48.8815C182.906 52.1696 184.018 55.411 185.044 58.738C185.553 60.4522 186.391 62.0728 187.136 63.6468C188.068 65.5947 188.906 67.5815 189.697 69.5684C192.353 76.2303 196.583 81.6065 202.865 85.2608C203.797 85.814 204.776 86.3283 205.842 86.6478C206.688 86.6244 206.782 86.8114 206.5 87.6918Z" fill="black"/>
<path d="M133.532 53.9928C133.203 53.4863 132.929 52.9253 132.553 52.4656C131.527 51.3047 130.367 50.9385 128.926 51.4917C126.365 52.5124 125.808 53.7123 125.714 56.3537C125.855 57.6938 125.949 59.1743 126.412 60.569C126.968 62.3299 128.135 63.67 129.764 64.5973C131.347 65.4777 132.929 65.1505 134.002 63.7168C135.169 62.1896 135.725 60.4755 135.208 58.5821C134.785 56.9536 134.37 55.3797 133.532 53.9928Z" fill="black"/>
<path d="M118.312 61.3092C118.547 60.0625 118.774 58.7613 118.727 57.1406C118.727 56.7277 118.68 55.9797 118.539 55.2862C118.257 53.5253 117.419 52.6448 115.884 52.3721C114.16 52.0449 112.21 52.7461 111.419 53.946C110.298 55.6135 109.789 57.4601 109.46 59.408C109.131 61.3092 109.648 63.0623 110.761 64.5895C111.74 65.9764 113.228 66.3504 114.763 65.6102C116.636 64.683 117.897 63.296 118.312 61.3092Z" fill="black"/>
<path d="M120.176 73.4953C120.043 74.6173 119.972 75.7471 120.16 76.8613C120.215 77.282 120.27 77.7028 120.427 78.0846C120.795 79.0975 121.625 80.7103 122.691 80.6714C124.555 80.6168 125.025 78.8481 125.706 77.1574C125.934 76.2457 126.231 75.2796 126.278 74.2666C126.341 72.9732 125.91 71.8201 125.088 70.8539C124.289 69.9189 123.2 69.7631 122.189 70.4487C121.069 71.1422 120.325 72.1239 120.176 73.4953Z" fill="black"/>
</g>
<defs>
<filter id="filter0_d_7_43" x="0" y="0" width="245" height="245" filterUnits="userSpaceOnUse" color-interpolation-filters="sRGB">
<feFlood flood-opacity="0" result="BackgroundImageFix"/>
<feColorMatrix in="SourceAlpha" type="matrix" values="0 0 0 0 0 0 0 0 0 0 0 0 0 0 0 0 0 0 127 0" result="hardAlpha"/>
<feOffset dy="4"/>
<feGaussianBlur stdDeviation="2"/>
<feComposite in2="hardAlpha" operator="out"/>
<feColorMatrix type="matrix" values="0 0 0 0 0 0 0 0 0 0 0 0 0 0 0 0 0 0 0.25 0"/>
<feBlend mode="normal" in2="BackgroundImageFix" result="effect1_dropShadow_7_43"/>
<feBlend mode="normal" in="SourceGraphic" in2="effect1_dropShadow_7_43" result="shape"/>
</filter>
<radialGradient id="paint0_diamond_7_43" cx="0" cy="0" r="1" gradientUnits="userSpaceOnUse" gradientTransform="translate(20 237) rotate(-47.3426) scale(311.387)">
<stop stop-color="#380F58"/>
<stop offset="1" stop-color="#140827"/>
</radialGradient>
<radialGradient id="paint1_diamond_7_43" cx="0" cy="0" r="1" gradientUnits="userSpaceOnUse" gradientTransform="translate(4.00001 237) rotate(-47.5882) scale(321)">
<stop stop-color="#65148B" stop-opacity="0.5"/>
<stop offset="1" stop-color="#C7A4D8" stop-opacity="0.5"/>
</radialGradient>
</defs>
</svg>
